<svg xmlns="http://www.w3.org/2000/svg" viewBox="0 0 200 32" fill="white">
  <g transform="translate(0,0)">
    <!-- AMERICAN -->
    <path d="M5.2 0.5h3.6l1.5 3.5 1.5-3.5h3.6v10.2h-2.6V3.8L11 7.8H9.2L6.8 3.8v6.9H4.2V0.5z"/>
    <path d="M18.5 0.5h7.8v2.2h-5.2v1.8h5v2.1h-5v1.8h5.2v2.3h-7.8V0.5z"/>
    <path d="M28.8 0.5h4.5c1.5 0 2.5 0.3 3.2 0.9 0.6 0.6 0.9 1.3 0.9 2.2 0 1.5-0.8 2.5-2.5 3l2.8 4.1h-3l-2.4-3.8h-1v3.8h-2.6V0.5zm4.2 4.5c0.9 0 1.4-0.5 1.4-1.2 0-0.8-0.5-1.2-1.4-1.2h-1.6v2.4h1.6z"/>
    <path d="M39.8 0.5h2.6v10.2h-2.6V0.5z"/>
    <path d="M44.6 5.6c0-3 2.2-5.3 5.5-5.3 2.1 0 3.4 0.7 4.4 1.8l-1.8 1.8c-0.6-0.7-1.4-1.1-2.5-1.1-1.7 0-2.9 1.3-2.9 2.8 0 1.6 1.2 2.9 3 2.9 0.8 0 1.6-0.3 2-0.6V6.6h-2.5V4.5h5v4.8c-1.1 1-2.7 1.7-4.5 1.7-3.4 0-5.7-2.2-5.7-5.4z"/>
    <path d="M57 0.5h2.8l4.2 10.2h-2.8l-0.8-2h-4.3l-0.8 2H52.7L57 0.5zm2.5 6.2L58.3 3.5l-1.2 3.2h2.4z"/>
    <path d="M65.8 0.5h2.8l4.5 6.2V0.5h2.6v10.2H73l-4.6-6.4v6.4h-2.6V0.5z"/>
    <!-- EXPRESS -->
    <path d="M4.2 13.5h7.8v2.2H6.8v1.8h5v2.1h-5v1.8h5.2v2.3H4.2V13.5z"/>
    <path d="M14 13.5h3l1.8 2.8 1.8-2.8h3l-3.5 5.1 3.7 5.1h-3.1L19 20.7l-1.9 3h-3.1l3.7-5.1L14 13.5z"/>
    <path d="M25.2 13.5h4.5c1.5 0 2.5 0.3 3.2 0.9 0.6 0.6 0.9 1.3 0.9 2.2 0 1.5-0.8 2.5-2.5 3l2.8 4.1h-3l-2.4-3.8h-1v3.8h-2.6V13.5zm4.2 4.5c0.9 0 1.4-0.5 1.4-1.2 0-0.8-0.5-1.2-1.4-1.2h-1.6v2.4h1.6z"/>
    <path d="M36.2 13.5H41c1.5 0 2.5 0.3 3.2 0.9 0.6 0.6 0.9 1.3 0.9 2.2 0 1.5-0.8 2.5-2.5 3l2.8 4.1h-3l-2.4-3.8h-1v3.8h-2.6V13.5zm4.2 4.5c0.9 0 1.4-0.5 1.4-1.2 0-0.8-0.5-1.2-1.4-1.2H40v2.4h1.6z"/>
    <path d="M47 13.5h7.8v2.2h-5.2v1.8h5v2.1h-5v1.8h5.2v2.3H47V13.5z"/>
    <path d="M56.8 21l1.6-1.9c1 0.9 2.2 1.4 3.4 1.4 1 0 1.6-0.4 1.6-1 0-0.6-0.4-0.9-2.2-1.3-2.4-0.6-4-1.3-4-3.6 0-2.1 1.7-3.6 4.4-3.6 1.8 0 3.4 0.6 4.6 1.6l-1.4 2c-1-0.7-2-1.2-3.2-1.2-0.9 0-1.4 0.4-1.4 0.9 0 0.7 0.5 0.9 2.3 1.4 2.4 0.6 3.8 1.5 3.8 3.5 0 2.3-1.8 3.7-4.6 3.7-1.9 0-3.8-0.7-4.9-1.9z"/>
    <path d="M67.6 21l1.6-1.9c1 0.9 2.2 1.4 3.4 1.4 1 0 1.6-0.4 1.6-1 0-0.6-0.4-0.9-2.2-1.3-2.4-0.6-4-1.3-4-3.6 0-2.1 1.7-3.6 4.4-3.6 1.8 0 3.4 0.6 4.6 1.6l-1.4 2c-1-0.7-2-1.2-3.2-1.2-0.9 0-1.4 0.4-1.4 0.9 0 0.7 0.5 0.9 2.3 1.4 2.4 0.6 3.8 1.5 3.8 3.5 0 2.3-1.8 3.7-4.6 3.7-1.9 0-3.8-0.7-4.9-1.9z"/>
  </g>
</svg>
